<?xml version="1.0"?>
<svg xmlns="http://www.w3.org/2000/svg" height="512px" viewBox="0 0 64 64" width="512px" class=""><g><path d="m61 17v10a2.006 2.006 0 0 1 -2 2h-3v-14h3a2.006 2.006 0 0 1 2 2z" fill="#ff3051" data-original="#FF3051" class="" data-old_color="#ff3051" style="fill:#F9F2ED"/><path d="m52 17h4v10h-4z" fill="#c0ab91" data-original="#C0AB91" class=""/><path d="m55 58h-46l4-4h38z" fill="#a78966" data-original="#A78966" class=""/><rect fill="#ffb655" height="38" rx="4" width="40" x="12" y="9" data-original="#FFB655" class="" style="fill:#FFFFFF" data-old_color="#ffb655"/><path d="m48 38v2a2.006 2.006 0 0 1 -2 2h-4v-6h4a2.006 2.006 0 0 1 2 2z" fill="#ffda44" data-original="#FFDA44" class="" data-old_color="#ffda44" style="fill:#F9F2ED"/><rect fill="#57a4ff" height="20" rx="2" width="32" x="16" y="13" data-original="#57A4FF" class="" style="fill:#F9F2ED" data-old_color="#57a4ff"/><path d="m45 7v2h-26v-2a4 4 0 0 1 4-4h18a4 4 0 0 1 4 4z" fill="#57a4ff" data-original="#57A4FF" class="" style="fill:#F9F2ED" data-old_color="#57a4ff"/><path d="m42 37v6h-4a2.006 2.006 0 0 1 -2-2v-2a2.006 2.006 0 0 1 2-2z" fill="#00d7df" data-original="#00D7DF" class="active-path" data-old_color="#00d7df" style="fill:#F9F2ED"/><path d="m28 39v2a2.006 2.006 0 0 1 -2 2h-4v-6h4a2.006 2.006 0 0 1 2 2z" fill="#ffda44" data-original="#FFDA44" class="" data-old_color="#ffda44" style="fill:#F9F2ED"/><path d="m22 37v6h-4a2.006 2.006 0 0 1 -2-2v-2a2.006 2.006 0 0 1 2-2z" fill="#00d7df" data-original="#00D7DF" class="active-path" data-old_color="#00d7df" style="fill:#F9F2ED"/><path d="m8 17h4v10h-4z" fill="#c0ab91" data-original="#C0AB91" class=""/><path d="m8 29h-3a2.006 2.006 0 0 1 -2-2v-10a2.006 2.006 0 0 1 2-2h3z" fill="#ff3051" data-original="#FF3051" class="" data-old_color="#ff3051" style="fill:#F9F2ED"/><path d="m46 12h-28a3 3 0 0 0 -3 3v16a3 3 0 0 0 3 3h28a3 3 0 0 0 3-3v-16a3 3 0 0 0 -3-3zm1 19a1 1 0 0 1 -1 1h-28a1 1 0 0 1 -1-1v-16a1 1 0 0 1 1-1h28a1 1 0 0 1 1 1z" data-original="#000000" class=""/><path d="m26 36h-8a3 3 0 0 0 -3 3v2a3 3 0 0 0 3 3h8a3 3 0 0 0 3-3v-2a3 3 0 0 0 -3-3zm-9 5v-2a1 1 0 0 1 1-1h3v4h-3a1 1 0 0 1 -1-1zm10 0a1 1 0 0 1 -1 1h-3v-4h3a1 1 0 0 1 1 1z" data-original="#000000" class=""/><path d="m46 36h-8a3 3 0 0 0 -3 3v2a3 3 0 0 0 3 3h8a3 3 0 0 0 3-3v-2a3 3 0 0 0 -3-3zm-9 5v-2a1 1 0 0 1 1-1h3v4h-3a1 1 0 0 1 -1-1zm10 0a1 1 0 0 1 -1 1h-3v-4h3a1 1 0 0 1 1 1z" data-original="#000000" class=""/><path d="m59 14h-3a1 1 0 0 0 -1 1v1h-2v-3a5.006 5.006 0 0 0 -5-5h-2v-1a5.006 5.006 0 0 0 -5-5h-18a5.006 5.006 0 0 0 -5 5v1h-2a5.006 5.006 0 0 0 -5 5v3h-2v-1a1 1 0 0 0 -1-1h-3a3 3 0 0 0 -3 3v10a3 3 0 0 0 3 3h3a1 1 0 0 0 1-1v-1h2v15a5.006 5.006 0 0 0 5 5h32a5.006 5.006 0 0 0 5-5v-15h2v1a1 1 0 0 0 1 1h3a3 3 0 0 0 3-3v-10a3 3 0 0 0 -3-3zm-52 14h-2a1 1 0 0 1 -1-1v-10a1 1 0 0 1 1-1h2zm2-2v-8h2v8zm11-19a3 3 0 0 1 3-3h18a3 3 0 0 1 3 3v1h-24zm31 36a3 3 0 0 1 -3 3h-32a3 3 0 0 1 -3-3v-30a3 3 0 0 1 3-3h32a3 3 0 0 1 3 3zm2-17v-8h2v8zm7 1a1 1 0 0 1 -1 1h-2v-12h2a1 1 0 0 1 1 1z" data-original="#000000" class=""/><path d="m46.293 50.707 2.293 2.293h-33.172l2.293-2.293-1.414-1.414-12 12 1.414 1.414 3.707-3.707h45.172l3.707 3.707 1.414-1.414-12-12zm-34.879 6.293 2-2h37.172l2 2z" data-original="#000000" class=""/></g> </svg>
